<svg xmlns="http://www.w3.org/2000/svg" viewBox="0 0 739.03 574.87"><defs><style>.cls-1{fill:#182943;}.cls-2{fill:#afbdff;}.cls-3{fill:#c2cdff;}.cls-4{fill:#dde4ff;}.cls-5{fill:#8b9fff;}.cls-6{fill:#f34611;}.cls-7{fill:#c9260a;}.cls-8,.cls-9{fill:none;stroke-linecap:round;stroke-linejoin:round;stroke-width:2px;}.cls-8{stroke:#f34611;}.cls-9{stroke:#c9260a;}</style></defs><title>Asset 3</title><g id="Layer_2" data-name="Layer 2"><g id="Layer_1-2" data-name="Layer 1"><path class="cls-1" d="M553.41,239.39C529.24,97.89,346.38-5.49,259.59,36.18c-33,15.85-61.9,57.39-59.86,97.32,3.77,73.68,110.92,105,101.07,148-8.39,36.62-88.24,23.2-114.43,70.13C155.52,406.92,210.12,526.21,283,545.11,388.1,572.38,581.44,403.48,553.41,239.39Z"/><polygon class="cls-2" points="375.5 364.35 503.93 315.42 415.42 485.23 333.16 543.39 243.71 532.32 290.59 479.56 375.5 364.35"/><path class="cls-2" d="M739,288.92s-168.15-61.28-238.51-52.2S336,310.48,307.05,326.93s-105.26,54.64-105.26,54.64,21,27.49,55.37,13.38,66.06-28,86.48-24.07,51.63,17.33,104.68-17.28S739,288.92,739,288.92Z"/><path class="cls-2" d="M375.5,364.35S260.81,483.81,248,492s-99.57,1.7-112.91,3.4-27.51,7.66-31.2,13.62,127.66,18.72,145.25,13.62,56.73-37.45,56.73-37.45Z"/><path class="cls-2" d="M120.52,513.76c-16.67.55-36.48,1.19-34.18,10.09,10.4,8.47,51.8,16.17,49.17,15.47l96.5,4.07s78.73-14.47,96.6-34.33-22.7-23.83-22.7-23.83-46.86,32.61-56.17,33.66S137.19,513.22,120.52,513.76Z"/><path class="cls-3" d="M319,558.61s-56.45,16.26-86.81,16.26-120.28-26.38-120.28-32.34,20.71-16.21,37.45-16.21S239,541.39,239,541.39Z"/><path class="cls-4" d="M719.53,418.28S688.89,363,628.75,382.71,432.44,513.6,397.26,545.37s-162.77,7.14-170.5-6c0,0,9.11-17.12,34.05-16.22s63.81,3.72,83.1-.84,55.27-36.45,68.6-60.38S472.15,266.22,565.2,259.41,739,288.92,739,288.92Z"/><path class="cls-5" d="M185,117.74v21l-1.63,1.63L166.7,128.11a17.84,17.84,0,0,1-8.89-15.44V111.6c-2.12-1.85,4.57-6.88,8.24-4.77Z"/><path class="cls-3" d="M183.39,119.37v21l-18.32-10.65a17.84,17.84,0,0,1-8.89-15.44v-1.08a5.5,5.5,0,0,1,8.24-4.76Z"/><path class="cls-5" d="M185,160.93v21l-1.63,1.63L166.7,171.31a17.85,17.85,0,0,1-8.89-15.44v-1.08c-2.12-1.84,4.57-6.87,8.24-4.76Z"/><path class="cls-3" d="M183.39,162.56v21l-18.32-10.64a17.85,17.85,0,0,1-8.89-15.44v-1.08a5.5,5.5,0,0,1,8.24-4.77Z"/><path class="cls-5" d="M185,204.13v21l-1.63,1.63L166.7,214.51a17.85,17.85,0,0,1-8.89-15.44V198c-2.12-1.85,4.57-6.87,8.24-4.77Z"/><path class="cls-3" d="M183.39,205.76v21l-18.32-10.64a17.85,17.85,0,0,1-8.89-15.44v-1.08a5.5,5.5,0,0,1,8.24-4.77Z"/><path class="cls-5" d="M185,247.33v21L183.39,270,166.7,257.7a17.82,17.82,0,0,1-8.89-15.44v-1.07c-2.12-1.85,4.57-6.88,8.24-4.77Z"/><path class="cls-3" d="M183.39,249v21l-18.32-10.65a17.84,17.84,0,0,1-8.89-15.44v-1.08a5.5,5.5,0,0,1,8.24-4.76Z"/><path class="cls-5" d="M201.23,309.7l18.08,10.12,0,19c-3.26,8.87-6,9-10.8,6.23h0a14.58,14.58,0,0,1-7.28-12.63l-1.61-21.08Z"/><path class="cls-3" d="M199.59,311.34l18.08,10.1v19a7.2,7.2,0,0,1-10.79,6.24h0A14.59,14.59,0,0,1,199.59,334Z"/><path class="cls-5" d="M231.66,327.08l18.07,10.11v19c-3.27,8.88-6,9-10.8,6.23h0a14.56,14.56,0,0,1-7.28-12.63L230,328.7Z"/><path class="cls-3" d="M230,328.71l18.09,10.11v19A7.2,7.2,0,0,1,237.3,364h0A14.56,14.56,0,0,1,230,351.42Z"/><path class="cls-5" d="M264.48,345.54l18.08,10.12v19c-3.27,8.87-6,9-10.81,6.22h0a14.59,14.59,0,0,1-7.28-12.62l-1.61-21.08Z"/><path class="cls-3" d="M262.84,347.18l18.09,10.1v19a7.2,7.2,0,0,1-10.8,6.23h0a14.56,14.56,0,0,1-7.29-12.62Z"/><path class="cls-5" d="M294.91,362.91,313,373l0,19c-3.27,8.87-6,9-10.8,6.23h0a14.56,14.56,0,0,1-7.28-12.63l-1.61-21.08Z"/><path class="cls-3" d="M293.26,364.55l18.09,10.1v19a7.21,7.21,0,0,1-10.8,6.24h0a14.58,14.58,0,0,1-7.29-12.62Z"/><path class="cls-5" d="M190.15,287.84,185,74.57c8.64-7,12.46-12.83,18.37-9.47l128.53,73.12a21.81,21.81,0,0,1,11,18.94V372.21c0,6.79-10,13.34-13.77,17.12l-128-82.55A21.78,21.78,0,0,1,190.15,287.84Z"/><path class="cls-3" d="M179.89,297.56v-215a8.86,8.86,0,0,1,13.24-7.7l128.54,73.13a21.79,21.79,0,0,1,11,18.94V381.93a8.86,8.86,0,0,1-13.24,7.7L190.91,316.5A21.78,21.78,0,0,1,179.89,297.56Z"/><path class="cls-5" d="M195,279.53l-4.11-170.85c6.92-5.62,10-10.28,14.71-7.59l103,58.58a17.46,17.46,0,0,1,8.82,15.17V347.11c0,5.44-8,10.69-11,13.71L203.79,294.7A17.46,17.46,0,0,1,195,279.53Z"/><path class="cls-3" d="M186.75,287.31V115.05a7.09,7.09,0,0,1,10.6-6.17l103,58.58a17.43,17.43,0,0,1,8.82,15.17V354.9a7.09,7.09,0,0,1-10.6,6.16l-103-58.57A17.48,17.48,0,0,1,186.75,287.31Z"/><path class="cls-5" d="M206.66,74.84l-1.58-18.59c0-4.58,6.53-9,10.5-6.67h0a17.12,17.12,0,0,1,8.56,14.83V84.92l-1.57,1.58Z"/><path class="cls-3" d="M205.08,76.42V56.31A6,6,0,0,1,214,51.16h0A17.1,17.1,0,0,1,222.57,66V86.5Z"/><path class="cls-5" d="M238.44,93.61,236.87,75c0-4.58,6.53-9,10.5-6.67h0a17.12,17.12,0,0,1,8.56,14.83v20.51l-1.58,1.58Z"/><path class="cls-3" d="M236.87,95.19V75.08a5.94,5.94,0,0,1,8.92-5.15h0a17.09,17.09,0,0,1,8.56,14.82v20.52Z"/><path class="cls-5" d="M271,110.45l-1.58-18.59c0-4.58,6.54-9,10.5-6.67h0A17.12,17.12,0,0,1,288.5,100v20.52l-1.58,1.58Z"/><path class="cls-3" d="M269.43,112V91.92a6,6,0,0,1,8.93-5.15h0a17.09,17.09,0,0,1,8.56,14.82v20.52Z"/><path class="cls-5" d="M302.8,129.22l-1.58-18.59c0-4.58,6.53-9,10.5-6.67h0a17.11,17.11,0,0,1,8.56,14.82V139.3l-1.57,1.58Z"/><path class="cls-3" d="M301.22,130.79v-20.1a6,6,0,0,1,8.92-5.15h0a17.1,17.1,0,0,1,8.57,14.82v20.52Z"/><path class="cls-5" d="M339.14,192.19l-1.62,1.63,1.62,19.39,16,11.57c4.73,1.46,11.25-2.74,11.25-8.21h0a15.11,15.11,0,0,0-7.58-13.1Z"/><path class="cls-3" d="M337.52,193.82v21l16.56,9.52a7.11,7.11,0,0,0,10.65-6.16h0a15.11,15.11,0,0,0-7.58-13.1Z"/><path class="cls-5" d="M339.14,238.29l-1.62,1.63,1.62,19.39,16,11.57c4.73,1.46,11.25-2.74,11.25-8.21h0a15.12,15.12,0,0,0-7.58-13.1Z"/><path class="cls-3" d="M337.52,239.92v21l16.56,9.52a7.11,7.11,0,0,0,10.65-6.16h0a15.11,15.11,0,0,0-7.58-13.1Z"/><path class="cls-5" d="M339.14,284.39,337.52,286l1.62,19.39,16,11.57c4.73,1.46,11.25-2.74,11.25-8.2h0a15.13,15.13,0,0,0-7.58-13.11Z"/><path class="cls-3" d="M337.52,286v21l16.56,9.52a7.11,7.11,0,0,0,10.65-6.16h0a15.12,15.12,0,0,0-7.58-13.1Z"/><path class="cls-5" d="M339.14,330.49l-1.62,1.63,1.62,19.39,16,11.57c4.73,1.46,11.25-2.74,11.25-8.2h0a15.13,15.13,0,0,0-7.58-13.11Z"/><path class="cls-3" d="M337.52,332.12v21l16.56,9.52a7.11,7.11,0,0,0,10.65-6.15h0a15.13,15.13,0,0,0-7.58-13.11Z"/><path class="cls-6" d="M105.2,322.75,83.34,308.43h0a4.76,4.76,0,0,0-.49-.28l-.29-.14-.22-.1-.34-.12-.19-.06-.33-.08-.22-.05-.29,0-.27,0H79.9l-.34,0-.28,0-.27.05a5.09,5.09,0,0,0-.56.14h0l-31.54,10a5.75,5.75,0,0,0-3.62,3.36L33.6,345.34a5.77,5.77,0,0,0,2.41,7.1L78.7,377.81h0l.4.21.15.08h0a4.87,4.87,0,0,0,.53.21l.21.06c.12,0,.23.07.35.09l.22,0,.35.05.22,0,.35,0h.58l.19,0,.41-.06.15,0a5.36,5.36,0,0,0,.54-.14h0a5.55,5.55,0,0,0,.52-.2l.14-.06.37-.18.16-.1.32-.2.16-.12a3.15,3.15,0,0,0,.29-.22l.16-.14.26-.25.15-.16.24-.28.13-.17a5.72,5.72,0,0,0,.32-.48h0l.08-.15c.07-.14.15-.27.21-.4v0l20.39-45.28A5.75,5.75,0,0,0,105.2,322.75Z"/><path class="cls-7" d="M430.39,38.27l-9.47-24.36h0a4.9,4.9,0,0,0-.24-.52c0-.09-.1-.18-.15-.27l-.12-.21-.21-.3-.12-.16-.22-.26-.15-.17-.21-.2-.2-.19-.2-.15a2.43,2.43,0,0,0-.25-.2l-.19-.12-.29-.18-.25-.12-.25-.13a4.81,4.81,0,0,0-.53-.2h0L385.88.28A5.79,5.79,0,0,0,381,.92L359,15a5.76,5.76,0,0,0-2.16,7.18l20,45.45v0l.2.4s.05.11.08.16h0a4.9,4.9,0,0,0,.31.48l.13.17.23.28.16.17.25.24.16.15.28.22.17.12.32.2.16.1.36.19.14.06a5.55,5.55,0,0,0,.52.2h0a5.44,5.44,0,0,0,.54.15l.15,0,.4.06.19,0,.38,0h.56l.22,0,.35-.06.22,0a3.58,3.58,0,0,0,.35-.09l.21-.06.53-.2h0a.8.8,0,0,1,.16-.08c.13-.07.27-.13.39-.21h0l42.9-25A5.76,5.76,0,0,0,430.39,38.27Z"/><path class="cls-8" d="M343,449C156.55,435.26,109,407.64,105.26,382.64c-4.18-27.82,45.32-55.65,35.5-88-6.6-21.74-35.94-32-57.1-37"/><path class="cls-8" d="M31.87,409.74s53-32.13,72,19.67,229.31,35,229.31,35"/><path class="cls-8" d="M145.06,365.33s53.68-61.4,0-95.35"/><line class="cls-8" x1="124.48" y1="258.56" x2="103.85" y2="252.94"/><line class="cls-8" x1="320.28" y1="485.23" x2="248.04" y2="492.04"/><line class="cls-8" x1="230.03" y1="495.6" x2="196.51" y2="495.6"/><path class="cls-8" d="M20.24,416.21S4.77,424.93,1,437.55"/><path class="cls-8" d="M145.06,437.55s26.16,15.31,51.45,11.45"/><path class="cls-9" d="M402.3,240.9s-71.06-75.55-30.87-100,43.16-37.09,30.87-46.61"/><path class="cls-9" d="M383.91,182.25c-16.15-26,0-32.73,0-32.73"/><line class="cls-9" x1="389.3" y1="192.19" x2="398.22" y2="205.54"/><path class="cls-9" d="M376.73,87.2S391,88,389.3,100.31"/></g></g></svg>